<svg height="609pt" viewBox="-43 -19 609 609.33331" width="609pt" xmlns="http://www.w3.org/2000/svg"><path d="m301.679688 103.75-6.890626 275h63.792969v-275h-10v48.082031c0 4.828125-3.914062 8.75-8.75 8.75-4.832031 0-8.75-3.921875-8.75-8.75v-48.082031zm0 0"/><path d="m277.285156 378.75 4.8125-192.5h-47.746094l4.816407 192.5zm0 0"/><path d="m231.683594 80-5.609375-39.417969c-.703125-4.785156 2.601562-9.234375 7.386719-9.9375 4.785156-.703125 9.234374 2.601563 9.9375 7.386719l5.183593 36.21875v-34.875c0-4.835938 3.917969-8.75 8.75-8.75 4.835938 0 8.75 3.914062 8.75 8.75v40.625h.308594l5.960937-41.933594c.679688-4.789062 5.109376-8.128906 9.902344-7.460937 4.804688.757812 8.113282 5.234375 7.421875 10.054687l-5.609375 39.339844h2.339844l19.59375-80h-94.300781l18.441406 80zm0 0"/><path d="m284.316406 97.5h-52.179687l1.777343 71.25h48.625zm0 0"/><path d="m358.582031 80.039062-8.386719-.113281c-.953124-.011719-1.613281.351563-1.613281.546875v5.777344h10zm0 0"/><path d="m409.890625 11.464844-23.808594.117187v19.667969h23.347657zm0 0"/><path d="m376.082031 48.75h42.5v330h-42.5zm0 0"/><path d="m-1.417969 103.75h85v275h-85zm0 0"/><path d="m-1.417969 396.25h522.5v70h-522.5zm0 0"/><path d="m214.773438 103.75h-41.191407v275h48.082031zm0 0"/><path d="m436.082031 103.75h85v275h-85zm0 0"/><path d="m128.359375 25.984375-22.34375 49.015625h44.6875zm0 0"/><path d="m101.082031 92.5h55v286.25h-55zm0 0"/><path d="m347.929688 553.75-19.730469-70h-136.730469l-19.730469 70h-53.820312c-4.832031 0-8.75 3.914062-8.75 8.75s3.917969 8.75 8.75 8.75h283.828125c4.835937 0 8.75-3.914062 8.75-8.75s-3.914063-8.75-8.75-8.75zm0 0"/></svg>